<svg id="Layer_1" data-name="Layer 1" xmlns="http://www.w3.org/2000/svg" viewBox="0 0 126.36 34.26">
    <title>logo</title>
    <path fill="#ffffff" d="M9.3,56a4.56,4.56,0,0,0-1.21-.73,3.21,3.21,0,0,0-1.17-.24,1.9,1.9,0,0,0-1.17.34,1.06,1.06,0,0,0-.45.89.88.88,0,0,0,.23.62,2,2,0,0,0,.59.42,5.06,5.06,0,0,0,.83.31l.92.28a5.71,5.71,0,0,1,2.65,1.61,4,4,0,0,1,.84,2.63,5.13,5.13,0,0,1-.37,2,4.13,4.13,0,0,1-1.08,1.52,5,5,0,0,1-1.74,1A7.21,7.21,0,0,1,5.85,67a8.58,8.58,0,0,1-5-1.6l1.58-3a6.41,6.41,0,0,0,1.64,1.09,3.94,3.94,0,0,0,1.6.36A1.91,1.91,0,0,0,7,63.48,1.29,1.29,0,0,0,7.36,62,1.2,1.2,0,0,0,7,61.54a3,3,0,0,0-.69-.37l-1-.38q-.72-.23-1.41-.5a4.4,4.4,0,0,1-1.23-.73,3.37,3.37,0,0,1-.87-1.14,4,4,0,0,1-.33-1.75,5,5,0,0,1,.35-1.92,4.26,4.26,0,0,1,1-1.47,4.37,4.37,0,0,1,1.55-1,5.84,5.84,0,0,1,2-.34,9,9,0,0,1,2.21.29,9.76,9.76,0,0,1,2.21.86Z" transform="translate(-0.85 -52)"/>
    <path fill="#ffffff" d="M19.17,55.53v11.1h-3.7V55.53h-3V52.4h9.77v3.13Z" transform="translate(-0.85 -52)"/>
    <path fill="#ffffff" d="M35.68,66.63h-4.6l-3.53-5.47v5.47h-3.7V52.4H29.6a5.66,5.66,0,0,1,2.08.35A3.91,3.91,0,0,1,34,55.1a4.87,4.87,0,0,1,.29,1.7,4.17,4.17,0,0,1-.78,2.63,3.94,3.94,0,0,1-2.31,1.37Zm-8.13-7.87h.7a2.7,2.7,0,0,0,1.68-.45,1.74,1.74,0,0,0,0-2.6,2.7,2.7,0,0,0-1.68-.45h-.7Z" transform="translate(-0.85 -52)"/>
    <path fill="#ffffff" d="M45.32,55.53h-4.4v2.38h4.15V61H40.93v2.45h4.4v3.13H37.23V52.4h8.09Z" transform="translate(-0.85 -52)"/>
    <path fill="#ffffff" d="M56.08,55.53h-4.4v2.38h4.15V61H51.68v2.45h4.4v3.13H48V52.4h8.09Z" transform="translate(-0.85 -52)"/>
    <path fill="#ffffff" d="M64.14,55.53v11.1h-3.7V55.53h-3V52.4h9.77v3.13Z" transform="translate(-0.85 -52)"/>
    <path fill="#ffffff" d="M62.93,85.87h-3.7V71.64h5.89a5,5,0,0,1,3.67,1.25,5.47,5.47,0,0,1,0,7,5,5,0,0,1-3.67,1.25H62.93Zm0-7.7h1.23q2,0,2-1.77t-2-1.77H62.93Z" transform="translate(-0.85 -52)"/>
    <path fill="#ffffff" d="M79.95,83.4H74.66l-.85,2.47H69.87l5.42-14.23h4l5.42,14.23H80.8Zm-1-2.81-1.66-4.74-1.66,4.74Z" transform="translate(-0.85 -52)"/>
    <path fill="#ffffff" d="M90.06,85.87h-3.7V71.64h5.89a5,5,0,0,1,3.67,1.25,5.47,5.47,0,0,1,0,7,5,5,0,0,1-3.67,1.25H90.06Zm0-7.7h1.23q2,0,2-1.77t-2-1.77H90.06Z" transform="translate(-0.85 -52)"/>
    <path fill="#ffffff" d="M107.25,74.77h-4.4v2.38H107v3.13h-4.15v2.45h4.4v3.13h-8.1V71.64h8.1Z" transform="translate(-0.85 -52)"/>
    <path fill="#ffffff" d="M121.74,85.87h-4.6l-3.53-5.47v5.47h-3.7V71.64h5.76a5.66,5.66,0,0,1,2.08.35,3.91,3.91,0,0,1,2.33,2.35,4.86,4.86,0,0,1,.29,1.7,4.18,4.18,0,0,1-.78,2.63A4,4,0,0,1,117.27,80ZM113.61,78h.7a2.7,2.7,0,0,0,1.68-.45,1.74,1.74,0,0,0,0-2.6,2.69,2.69,0,0,0-1.68-.45h-.7Z" transform="translate(-0.85 -52)"/>
    <path fill="#ffffff" d="M122.8,84.06a2.21,2.21,0,0,1,.64-1.57,2.17,2.17,0,0,1,.71-.47,2.22,2.22,0,0,1,2.9,2.9,2.17,2.17,0,0,1-1.18,1.18,2.25,2.25,0,0,1-1.72,0A2.17,2.17,0,0,1,123,84.92,2.2,2.2,0,0,1,122.8,84.06Z" transform="translate(-0.85 -52)"/>
    <rect fill="#ffffff" x="2.56" y="25.4" width="48.51" height="3"/>
</svg>